<?xml version="1.0" encoding="utf-8"?>
<!-- Generator: Adobe Illustrator 16.0.0, SVG Export Plug-In . SVG Version: 6.00 Build 0)  -->
<!DOCTYPE svg PUBLIC "-//W3C//DTD SVG 1.1//EN" "http://www.w3.org/Graphics/SVG/1.1/DTD/svg11.dtd">
<svg version="1.1" xmlns="http://www.w3.org/2000/svg" xmlns:xlink="http://www.w3.org/1999/xlink" x="0px" y="0px" width="256px"
	 height="256px" viewBox="0 0 256 256" enable-background="new 0 0 256 256" xml:space="preserve">
<g id="Layer_1">
	<rect fill="#21759C" width="256" height="256"/>
	<text transform="matrix(0.9143 0 0 1 8.001 202.127)" fill="#FFFFFF" font-family="'MyriadPro-Bold'" font-size="26.4637">WP Float RelatedPosts</text>
</g>
<g id="Layer_2">
	<path fill="#FFFFFF" d="M228.227,53.873c-10.902,0-19.785,8.869-19.785,19.772c0,4.155,1.289,8.036,3.492,11.203l-45.762,52.674
		c-2.641-1.332-5.629-2.069-8.793-2.069c-3.496,0-6.754,0.906-9.598,2.494l-20.613-21.68c1.898-3.042,3.012-6.628,3.012-10.479
		c0-10.91-8.867-19.781-19.777-19.781c-10.902,0-19.777,8.871-19.777,19.781c0,1.949,0.281,3.804,0.793,5.58l-49.766,29.79
		c-3.557-3.537-8.457-5.706-13.871-5.706c-10.896,0-19.779,8.867-19.779,19.771s8.884,19.77,19.779,19.77
		c10.902,0,19.78-8.866,19.78-19.77c0-1.951-0.273-3.806-0.818-5.587l49.8-29.787c3.547,3.537,8.449,5.709,13.857,5.709
		c3.486,0,6.75-0.917,9.596-2.495l20.586,21.676c-1.902,3.041-2.988,6.627-2.988,10.484c0,10.903,8.855,19.77,19.781,19.77
		c10.898,0,19.773-8.866,19.773-19.77c0-4.18-1.309-8.036-3.512-11.221l45.754-52.655c2.648,1.33,5.664,2.075,8.832,2.075
		c10.898,0,19.777-8.875,19.777-19.779C248,62.738,239.121,53.873,228.227,53.873z M37.676,155.224c0,5.439-4.426,9.885-9.895,9.885
		c-5.456,0-9.894-4.445-9.894-9.885c0-5.46,4.438-9.886,9.894-9.886c1.759,0,3.396,0.444,4.795,1.233
		c2.989,1.657,5.015,4.818,5.1,8.481V155.224z M110.4,115.675c-1.75,0-3.402-0.451-4.818-1.234c-2.986-1.685-5.023-4.878-5.07-8.507
		v-0.145c0-5.466,4.43-9.893,9.889-9.893c5.443,0,9.893,4.427,9.893,9.893c0,0.955-0.15,1.921-0.422,2.813
		c-0.988,3.341-3.738,5.98-7.172,6.799C111.953,115.573,111.195,115.675,110.4,115.675z M167.266,155.224
		c0,5.439-4.457,9.885-9.887,9.885c-5.465,0-9.887-4.445-9.887-9.885c0-0.963,0.141-1.899,0.383-2.788
		c0.988-3.391,3.77-6.012,7.195-6.826c0.75-0.17,1.512-0.271,2.309-0.271c0.637,0,1.254,0.052,1.855,0.169
		c3.484,0.671,6.344,3.163,7.492,6.479C167.066,152.996,167.266,154.088,167.266,155.224z M228.227,83.538
		c-0.648,0-1.289-0.075-1.879-0.179c-3.492-0.69-6.332-3.213-7.477-6.497c-0.348-1.018-0.531-2.107-0.531-3.219
		c0-5.462,4.441-9.888,9.883-9.888c5.461,0,9.891,4.426,9.891,9.888C238.113,79.083,233.684,83.538,228.227,83.538z"/>
</g>
</svg>
